<?xml version="1.0" standalone="no"?><svg xmlns="http://www.w3.org/2000/svg" viewBox="0 0 1440 320"><path fill="#f37335" fill-opacity="1" d="M0,192L40,192C80,192,160,192,240,213.3C320,235,400,277,480,256C560,235,640,149,720,144C800,139,880,213,960,218.7C1040,224,1120,160,1200,144C1280,128,1360,160,1400,176L1440,192L1440,320L1400,320C1360,320,1280,320,1200,320C1120,320,1040,320,960,320C880,320,800,320,720,320C640,320,560,320,480,320C400,320,320,320,240,320C160,320,80,320,40,320L0,320Z"></path></svg>